<svg width="222" height="48" viewBox="0 0 222 48" fill="none" xmlns="http://www.w3.org/2000/svg">
<path d="M74.2879 0C70.0361 0 66.5789 3.53778 66.5789 7.88165C66.5789 9.42343 67.0169 10.8661 67.7678 12.0816L62.1112 19.1347L62.1018 19.1252C60.7409 17.8553 59.5676 16.3966 58.6102 14.7877L57.2086 12.4366C55.3846 9.37225 52.0714 7.46901 48.561 7.46901H32.5017C29.7109 7.46901 27.0141 8.66533 25.1087 10.7509L20.9883 15.2579C19.1267 17.2923 16.9148 18.8756 14.4087 19.9632L8.05759 22.7237C4.52535 24.2591 1.84723 27.445 0.89612 31.2451L0.167145 34.1559C-0.239579 35.7745 0.104572 37.4634 1.10574 38.7845C2.11003 40.1056 3.62117 40.8637 5.25745 40.8637H11.7807C12.7818 44.958 16.4079 48 20.7161 48C25.0242 48 28.6503 44.958 29.6515 40.8637H35.5803C36.813 40.8637 37.811 39.8433 37.811 38.583C37.811 37.3227 36.813 36.3023 35.5803 36.3023H5.26058C4.92269 36.3023 4.72245 36.104 4.63172 35.9888C4.54412 35.8705 4.40646 35.6242 4.49093 35.2883L5.21991 32.3774C5.82999 29.9432 7.54449 27.9056 9.80337 26.9236L16.1545 24.1631C19.2362 22.8229 21.9582 20.878 24.2483 18.3766L28.3688 13.8697C29.4356 12.7021 30.9436 12.0336 32.5048 12.0336H48.5642C50.5258 12.0336 52.3811 13.0988 53.401 14.8133L54.8027 17.1643C55.9791 19.1411 57.4245 20.9356 59.0983 22.4966L59.2829 22.6693L53.2884 30.1447C52.0557 29.5178 50.6697 29.1659 49.2024 29.1659C47.2595 29.1659 45.4543 29.7865 43.9682 30.8421L36.1028 25.5354C36.278 24.9564 36.3718 24.3423 36.3718 23.7025C36.3718 20.2607 33.6343 17.4618 30.2678 17.4618C26.9014 17.4618 24.1639 20.2607 24.1639 23.7025C24.1639 27.1443 26.9014 29.9432 30.2678 29.9432C31.3754 29.9432 32.4141 29.6393 33.3089 29.1116L41.0054 34.3031C40.3609 35.589 39.9948 37.0412 39.9948 38.5798C39.9948 43.7713 44.1277 47.9968 49.2055 47.9968C53.5137 47.9968 57.1398 44.9548 58.141 40.8605H63.4221C64.7268 40.8605 66.0001 40.4862 67.1014 39.7729C69.1194 38.4742 70.3239 36.2415 70.3239 33.8041V32.0352C70.3239 29.9368 69.7764 27.8673 68.7408 26.0536C68.1213 24.966 66.7541 24.5982 65.6904 25.2315C64.6266 25.8649 64.2668 27.2627 64.8863 28.3503C65.5246 29.4666 65.8593 30.7429 65.8593 32.0352V33.8041C65.8593 34.6677 65.4338 35.4546 64.7205 35.9152C64.3294 36.1679 63.8789 36.2991 63.419 36.2991H58.1378C57.8531 35.1315 57.3525 34.0504 56.6861 33.1004L71.1405 15.0756C72.1041 15.517 73.1678 15.7665 74.291 15.7665C78.5428 15.7665 82 12.2287 82 7.88165C82 3.53459 78.5397 0 74.2879 0ZM30.2616 25.3818C29.3543 25.3818 28.6159 24.6269 28.6159 23.6993C28.6159 22.7717 29.3543 22.0168 30.2616 22.0168C31.1689 22.0168 31.9073 22.7717 31.9073 23.6993C31.9073 24.6269 31.1689 25.3818 30.2616 25.3818ZM49.1993 43.4354C46.5806 43.4354 44.45 41.2571 44.45 38.5798C44.45 35.9024 46.5806 33.7241 49.1993 33.7241C51.818 33.7241 53.9486 35.9024 53.9486 38.5798C53.9486 41.2571 51.818 43.4354 49.1993 43.4354ZM74.2879 11.2051C72.4952 11.2051 71.0372 9.71451 71.0372 7.88165C71.0372 6.04878 72.4952 4.55818 74.2879 4.55818C76.0806 4.55818 77.5386 6.04878 77.5386 7.88165C77.5386 9.71451 76.0806 11.2051 74.2879 11.2051Z" fill="#0087FF"/>
<path d="M90.9295 15.2981H97.2186V11.1994H101.325V15.2981H107.327V18.8983H101.325V21.3648C101.325 22.0103 101.366 22.5981 101.452 23.1334C101.538 23.6687 101.669 24.1725 101.851 24.6501C102.033 25.1276 102.275 25.5895 102.573 26.0356C102.871 26.4816 103.235 26.9487 103.664 27.4368C103.942 27.7726 104.27 28.1295 104.644 28.5179C105.018 28.9062 105.407 29.3051 105.816 29.7197C106.22 30.129 106.634 30.5436 107.054 30.9529C107.473 31.3623 107.882 31.7611 108.291 32.1337L105.69 34.9362C105.003 34.2697 104.321 33.5874 103.639 32.8842C102.952 32.1862 102.31 31.5145 101.714 30.869C101.073 30.1815 100.542 29.5832 100.128 29.0846C99.714 28.5861 99.4513 28.203 99.3402 27.9353H99.2745C99.123 28.245 98.8148 28.691 98.345 29.2683C97.8752 29.8456 97.3701 30.4229 96.8346 31.0002C96.2335 31.6457 95.6172 32.3069 94.9757 32.9839C94.3342 33.6609 93.5663 34.4219 92.6672 35.2668L90 32.4329C91.7529 30.8112 93.339 29.2001 94.7484 27.5995C95.2182 27.0432 95.6172 26.5341 95.9355 26.067C96.2588 25.6 96.5113 25.1276 96.7033 24.6501C96.8953 24.1725 97.0316 23.6739 97.1024 23.1491C97.1781 22.6296 97.2135 22.0313 97.2135 21.3648V18.8983H90.9295V15.2981V15.2981ZM113.969 22.131H118.076V25.7994H113.969V42H109.893V11H113.969V22.131Z" fill="#0087FF"/>
<path d="M118.238 32.3017C119.844 31.2993 121.213 30.4124 122.345 29.6357C123.476 28.859 124.426 28.14 125.184 27.484C125.941 26.828 126.542 26.2087 126.982 25.6157C127.421 25.0279 127.75 24.4349 127.977 23.8314C128.199 23.2331 128.346 22.5981 128.411 21.9316C128.477 21.2651 128.507 20.5199 128.507 19.696V17.3973H118.783V13.7657H132.579V19.9006C132.579 21.0132 132.523 22.0208 132.417 22.934C132.311 23.8471 132.104 24.6973 131.791 25.4845C131.483 26.2717 131.043 27.0327 130.478 27.7674C129.912 28.5021 129.179 29.2631 128.28 30.0503C127.381 30.8375 126.285 31.6824 124.992 32.5851C123.698 33.4877 122.163 34.5006 120.39 35.6342L118.238 32.3017V32.3017ZM142.045 42H137.969V11H142.045V42V42Z" fill="#0087FF"/>
<path d="M155.199 34.5321V28.3657H159.24V34.5321H170.889V38.1007H143.551V34.5321H155.199ZM157.316 22.7975C157.144 23.1754 156.785 23.5795 156.24 24.0151C155.694 24.4507 155.017 24.9545 154.204 25.5317C153.325 26.13 152.31 26.7913 151.158 27.5155C150.006 28.2397 148.658 29.0532 147.117 29.9663L145.127 26.6338C146.304 25.9463 147.491 25.2274 148.688 24.4821C149.885 23.7369 150.956 23.0337 151.896 22.3672C152.537 21.9211 153.068 21.4803 153.482 21.0342C153.901 20.5881 154.229 20.1158 154.477 19.6172C154.724 19.1187 154.901 18.5781 155.007 18.0008C155.113 17.4236 155.169 16.7676 155.169 16.0328V12.8998H159.276V16.0328C159.276 16.7676 159.331 17.4236 159.437 18.0008C159.543 18.5781 159.72 19.1187 159.968 19.6172C160.215 20.1158 160.544 20.5881 160.963 21.0342C161.382 21.4803 161.908 21.9211 162.549 22.3672C163.489 23.0337 164.56 23.7422 165.757 24.4821C166.954 25.2274 168.141 25.9463 169.318 26.6338L167.363 29.8981C165.822 28.9849 164.474 28.1715 163.322 27.4473C162.17 26.723 161.15 26.0618 160.276 25.4635C159.463 24.8862 158.816 24.3929 158.336 23.9783C157.856 23.569 157.528 23.1754 157.356 22.7975H157.326H157.316Z" fill="#0087FF"/>
<path d="M182.472 21.1654C182.472 22.6558 182.351 23.9521 182.103 25.0647C181.856 26.1772 181.376 27.2531 180.659 28.2974C179.941 29.3418 178.926 30.4281 177.613 31.546C176.299 32.669 174.572 33.9968 172.43 35.5292L170.121 32.3279C171.98 31.0369 173.47 29.9348 174.582 29.0112C175.693 28.0875 176.542 27.2059 177.118 26.3609C177.693 25.516 178.072 24.6396 178.254 23.7264C178.436 22.8133 178.527 21.7374 178.527 20.4937V17.6282H170.925V14.0019H182.477V21.1706L182.472 21.1654ZM189.433 21.5642H192.287V11H196.136V42H192.287V25.2011H189.433V40.5043H185.584V11.635H189.433V21.5695V21.5642Z" fill="#0087FF"/>
<path d="M210.195 26.6023C210.877 27.379 211.629 28.1872 212.443 29.0217C213.256 29.8561 214.079 30.659 214.913 31.4358L212.311 34.2697C211.584 33.5612 210.877 32.8527 210.195 32.1547C209.508 31.4567 208.866 30.785 208.27 30.1395C207.649 29.494 207.123 28.9115 206.699 28.3919C206.27 27.8724 206.002 27.463 205.896 27.1744H205.83C205.724 27.484 205.431 27.9353 204.946 28.5231C204.466 29.1109 203.956 29.6934 203.421 30.2707C202.819 30.9162 202.188 31.5775 201.526 32.2544C200.865 32.9314 200.071 33.7186 199.152 34.6056L196.49 31.7401C198.309 30.0503 199.91 28.4181 201.304 26.8385C201.774 26.3032 202.163 25.7941 202.476 25.3061C202.784 24.818 203.037 24.3195 203.229 23.8051C203.421 23.2961 203.562 22.7608 203.648 22.2045C203.734 21.6482 203.774 21.0289 203.774 20.3362V13.1989H207.911V20.331C207.911 20.9975 207.937 21.5957 207.992 22.131C208.043 22.6663 208.159 23.1701 208.331 23.6477C208.502 24.1253 208.73 24.6028 209.023 25.0804C209.311 25.558 209.7 26.0618 210.195 26.5971V26.6023ZM212.054 20.3362H217.923V11H222V42H217.923V23.9993H212.054V20.331V20.3362Z" fill="#0087FF"/>
</svg>
