<svg width="80" height="82" viewBox="0 0 80 82" fill="none" xmlns="http://www.w3.org/2000/svg">
<path d="M72.8514 29.7916C72.5157 29.5775 71.8618 28.9814 71.6187 28.663C68.5918 18.9111 61.5947 13.9627 51.8369 14.7556L43.1325 15.6701C41.5004 15.8032 39.1102 16.2257 36.5 17.0649L35.6724 2.46873C35.6087 1.38647 34.9026 0.46625 33.8725 0.130574C32.8423 -0.205102 31.7311 0.118999 31.0424 0.95819L30.8861 1.14918L24.734 13.083L15.7749 3.96191C15.063 3.12851 13.8882 2.8102 12.8406 3.21532C11.6773 3.66675 10.9886 4.88213 11.2086 6.10908L13.7319 20.5258L3.54009 18.9111C2.30156 18.6796 1.07459 19.3799 0.628951 20.5547C0.183312 21.7296 0.634771 23.0607 1.71125 23.7147L14.3338 30.0115L10.9134 31.198C6.92 32.587 4.2346 36.3604 4.2346 40.5911V44.2141C4.2346 49.0872 8.19906 53.0459 13.0664 53.0459H13.6509C15.0225 57.0798 18.8365 59.9909 23.3276 59.9909C27.8187 59.9909 31.6327 57.0798 33.0043 53.0459H44.8977C44.9787 53.8214 45.1408 54.6085 45.4533 55.413L39.9667 61.3799C37.0614 61.3336 34.3066 62.5605 32.3851 64.7135C30.4868 66.8317 29.5839 69.6734 29.8964 72.5209C30.4057 77.1219 34.1156 80.8317 38.7166 81.3353C39.087 81.3758 39.4574 81.3989 39.8278 81.3989C42.2933 81.3989 44.6836 80.4961 46.524 78.8466C48.6364 76.9541 49.8518 74.2398 49.8576 71.4039L56.0271 64.673C57.6187 65.0087 59.2334 64.9797 61.1606 64.6035C66.3983 63.5791 70.6695 58.7929 71.6187 53.0401C76.2313 52.9128 79.9469 49.1277 79.9469 44.4861V39.3063C79.9469 34.9309 77.0416 31.0475 72.8572 29.809L72.8514 29.7916ZM27.1532 28.2637L29.4508 26.2844L31.8584 24.3571L35.4235 22.4125C36.5521 21.9206 37.6864 21.5328 38.7571 21.2203V27.5692C38.7571 28.2984 37.6633 29.1203 36.1991 29.1203H26.1114C26.4645 28.8425 26.8117 28.5589 27.1532 28.2695V28.2637ZM23.3334 55.3551C20.6364 55.3551 18.3735 53.4336 17.8526 50.8871C17.8526 50.8292 17.87 50.7772 17.87 50.7251C17.87 50.482 17.8237 50.2563 17.7542 50.0364C17.7542 49.9438 17.7426 49.8569 17.7426 49.7643C17.7426 46.6796 20.2545 44.1678 23.3392 44.1678C26.424 44.1678 28.9357 46.6796 28.9357 49.7643C28.9357 52.8491 26.424 55.3609 23.3392 55.3609L23.3334 55.3551ZM67.1334 51.6221C66.7224 55.7371 63.7708 59.36 60.2636 60.043C58.5505 60.3786 57.364 60.3266 56.0387 59.8636L54.5976 59.36L45.0771 69.7486L45.1871 70.7904C45.2102 70.9987 45.2218 71.1897 45.2218 71.3749C45.2218 72.9028 44.5678 74.3671 43.4277 75.3857C42.2759 76.4217 40.777 76.8962 39.2202 76.7226C36.7547 76.4506 34.7695 74.4655 34.4975 72C34.3239 70.4374 34.7985 68.9442 35.8344 67.7925C36.853 66.6523 38.3173 65.9983 39.8452 65.9983C40.0593 65.9983 40.2966 66.0157 40.5918 66.0562L41.7956 66.224L51.1077 56.0959L50.2049 54.6085C49.3946 53.2716 49.3657 52.0967 49.6087 49.9727C50.0891 45.7536 53.3822 42.391 57.4335 41.9685C58.0932 41.8991 58.7472 41.8991 59.3896 41.9743L56.1081 45.2559C54.9043 46.4655 54.2966 48.086 54.4471 49.7065C54.7365 52.8317 57.5376 55.1467 60.6745 54.8805C62.0345 54.7648 63.3541 54.1281 64.3843 53.0979L67.1739 50.3084C67.1912 50.7424 67.1797 51.1823 67.1391 51.6221H67.1334ZM75.3111 44.4688C75.3111 46.5638 73.6674 48.2712 71.6071 48.3927C71.4913 47.7271 71.3235 47.0674 71.1036 46.4134L71.011 46.1471L70.8605 45.9099C70.0618 44.6655 69.0664 44.3009 68.3719 44.2199C67.0465 44.0636 66.1495 44.7986 65.9064 45.0301L61.1143 49.8222C60.8539 50.0827 60.5529 50.2447 60.2809 50.2679C59.5864 50.3315 59.1118 49.8106 59.0655 49.2782C59.0424 49.0409 59.1697 48.7515 59.3896 48.5316L64.2222 43.699L64.3438 43.5717C64.6563 43.2071 65.6402 41.9049 65.2235 40.3191C65.073 39.7404 64.6042 38.687 63.2036 38.1835C61.2127 37.4196 59.1118 37.1475 56.9589 37.3675C51.1077 37.9752 46.3041 42.5415 45.1755 48.4101H33.4616C32.796 43.4096 28.5132 39.5378 23.3392 39.5378C18.1652 39.5378 13.8824 43.4096 13.2168 48.4101H13.0779C10.7571 48.4101 8.87617 46.5233 8.87617 44.2083V40.5853C8.87617 38.3282 10.3115 36.3084 12.4471 35.5676L17.6211 33.7676C17.6211 33.7676 17.679 33.7445 17.7021 33.7387C17.7542 33.7387 17.8063 33.7561 17.8642 33.7561H36.2106C40.1751 33.7561 43.3987 30.9838 43.3987 27.575V21.1798C43.3987 20.8788 43.3351 20.5895 43.2309 20.3232C43.3467 20.3117 43.4624 20.3001 43.5723 20.2885L52.2768 19.3741C59.8527 18.7606 64.8936 22.4067 67.2549 30.2025C67.7063 31.7015 70.1139 33.8429 71.4624 34.2133C73.7311 34.8441 75.3227 36.9334 75.3227 39.3005V44.4803L75.3111 44.4688Z" fill="url(#paint0_linear_89_1816)"/>
<path d="M39.8163 73.8925C41.1204 73.8925 42.1776 72.8146 42.1776 71.4849C42.1776 70.1552 41.1204 69.0773 39.8163 69.0773C38.5122 69.0773 37.455 70.1552 37.455 71.4849C37.455 72.8146 38.5122 73.8925 39.8163 73.8925Z" fill="url(#paint1_linear_89_1816)"/>
<defs>
<linearGradient id="paint0_linear_89_1816" x1="76.3338" y1="43.0385" x2="-0.295819" y2="42.8394" gradientUnits="userSpaceOnUse">
<stop stop-color="#0087FF"/>
<stop offset="1" stop-color="#00C3FF"/>
</linearGradient>
<linearGradient id="paint1_linear_89_1816" x1="41.9629" y1="71.6232" x2="37.4101" y2="71.6114" gradientUnits="userSpaceOnUse">
<stop stop-color="#0087FF"/>
<stop offset="1" stop-color="#00C3FF"/>
</linearGradient>
</defs>
</svg>
