<svg width="77" height="35" viewBox="0 0 77 35" fill="none" xmlns="http://www.w3.org/2000/svg">
<path d="M19.5622 10.9044C15.7135 10.9044 12.5883 14.0239 12.5883 17.8784C12.5883 21.7329 15.7078 24.8523 19.5622 24.8523C23.4167 24.8523 26.5362 21.7329 26.5362 17.8784C26.5362 14.0239 23.4167 10.9044 19.5622 10.9044V10.9044ZM19.5622 20.2223C18.2716 20.2223 17.2183 19.169 17.2183 17.8784C17.2183 16.5878 18.2716 15.5344 19.5622 15.5344C20.8529 15.5344 21.9061 16.5878 21.9061 17.8784C21.9061 19.169 20.8529 20.2223 19.5622 20.2223Z" fill="url(#paint0_linear_89_1804)"/>
<path d="M38.6669 10.9044C34.8182 10.9044 31.6929 14.0239 31.6929 17.8784C31.6929 21.7329 34.8124 24.8523 38.6669 24.8523C42.5213 24.8523 45.6408 21.7329 45.6408 17.8784C45.6408 14.0239 42.5213 10.9044 38.6669 10.9044V10.9044ZM38.6669 20.2223C37.3762 20.2223 36.3229 19.169 36.3229 17.8784C36.3229 16.5878 37.3762 15.5344 38.6669 15.5344C39.9575 15.5344 41.0108 16.5878 41.0108 17.8784C41.0108 19.169 39.9575 20.2223 38.6669 20.2223Z" fill="url(#paint1_linear_89_1804)"/>
<path d="M58.1997 10.9044C54.351 10.9044 51.2257 14.0239 51.2257 17.8784C51.2257 21.7329 54.3452 24.8523 58.1997 24.8523C62.0542 24.8523 65.1736 21.7329 65.1736 17.8784C65.1736 14.0239 62.0542 10.9044 58.1997 10.9044V10.9044ZM58.1997 20.2223C56.9091 20.2223 55.8557 19.169 55.8557 17.8784C55.8557 16.5878 56.9091 15.5344 58.1997 15.5344C59.4903 15.5344 60.5436 16.5878 60.5436 17.8784C60.5436 19.169 59.4903 20.2223 58.1997 20.2223Z" fill="url(#paint2_linear_89_1804)"/>
<path d="M60.0459 0.932556H17.7218C8.37491 0.932556 0.775879 8.53157 0.775879 17.8784C0.775879 27.2253 8.3807 34.8243 17.7218 34.8243H60.0459C69.3927 34.8243 76.9918 27.2253 76.9918 17.8784C76.9918 8.53157 69.3869 0.932556 60.0459 0.932556V0.932556ZM60.0459 30.1942H17.7218C10.933 30.1942 5.40589 24.6672 5.40589 17.8784C5.40589 11.0897 10.933 5.56257 17.7218 5.56257H60.0459C66.8346 5.56257 72.3617 11.0897 72.3617 17.8784C72.3617 24.6672 66.8346 30.1942 60.0459 30.1942V30.1942Z" fill="url(#paint3_linear_89_1804)"/>
<defs>
<linearGradient id="paint0_linear_89_1804" x1="25.9022" y1="18.2792" x2="12.4559" y2="18.2434" gradientUnits="userSpaceOnUse">
<stop stop-color="#0087FF"/>
<stop offset="1" stop-color="#00C3FF"/>
</linearGradient>
<linearGradient id="paint1_linear_89_1804" x1="45.0068" y1="18.2792" x2="31.5605" y2="18.2434" gradientUnits="userSpaceOnUse">
<stop stop-color="#0087FF"/>
<stop offset="1" stop-color="#00C3FF"/>
</linearGradient>
<linearGradient id="paint2_linear_89_1804" x1="64.5396" y1="18.2792" x2="51.0934" y2="18.2434" gradientUnits="userSpaceOnUse">
<stop stop-color="#0087FF"/>
<stop offset="1" stop-color="#00C3FF"/>
</linearGradient>
<linearGradient id="paint3_linear_89_1804" x1="73.5274" y1="18.8523" x2="0.0547533" y2="18.4127" gradientUnits="userSpaceOnUse">
<stop stop-color="#0087FF"/>
<stop offset="1" stop-color="#00C3FF"/>
</linearGradient>
</defs>
</svg>
