<svg width="75" height="78" viewBox="0 0 75 78" fill="none" xmlns="http://www.w3.org/2000/svg">
<path d="M65.4454 66.2455H54.2813V63.919L71.1924 44.1488C72.6451 43.2402 73.3743 42.1695 73.4727 40.8904C73.4727 40.8673 73.4727 40.8383 73.4727 40.8152C73.4727 40.7457 73.4842 40.6821 73.4842 40.6068C73.4842 40.5605 73.4785 40.5142 73.4785 40.4679C73.4785 40.4448 73.4785 40.4216 73.4785 40.3985C73.2412 36.5266 66.3945 34.1422 53.1006 33.3088C48.1233 21.2765 38.082 14.9913 34.4011 13.0177V12.5142C34.4011 10.2108 32.526 8.34142 30.2283 8.34142H27.4098V5.22773C27.4098 2.9243 25.5347 1.05493 23.237 1.05493H0.520996V37.6841H17.3743C16.4367 38.5465 15.9679 39.5188 15.9679 40.6126C15.9679 41.7065 16.3904 42.5977 17.2701 43.408L35.1767 63.9363V66.2513H24.3308C19.1279 66.2513 14.8972 70.482 14.8972 75.685V78H74.8906V75.685C74.8906 70.482 70.6599 66.2513 65.457 66.2513L65.4454 66.2455ZM68.0382 40.6068C66.1688 41.4402 61.9729 42.4646 55.6645 43.055C55.4446 41.3071 55.1147 39.6461 54.698 38.0661C61.9555 38.6622 66.1978 39.7792 68.0324 40.6068H68.0382ZM51.0345 43.3848C49.0783 43.4832 46.9832 43.5353 44.7319 43.5353C43.0824 43.5353 41.5198 43.5064 40.0266 43.4543C40.7153 40.4969 40.9295 37.7073 40.6517 35.1261C39.9572 28.5688 36.3515 25.021 34.4069 23.551V18.4059C39.5636 21.7164 49.194 29.6453 51.0345 43.3791V43.3848ZM36.1258 37.8809C36.0795 39.5419 35.8075 41.3129 35.3156 43.1823C27.977 42.6093 23.2023 41.446 21.275 40.5374C22.9534 39.6924 27.2941 38.3844 36.1258 37.8751V37.8809ZM29.7711 12.9714V25.7561H27.404V12.9714H29.7711V12.9714ZM5.14523 5.67916H22.7798V31.4336C22.7798 32.3249 22.0564 33.0483 21.1651 33.0483H5.14523V5.67916V5.67916ZM27.4098 31.4336V30.3861H34.378C34.8526 31.1905 35.2808 32.1455 35.5992 33.274C32.2135 33.4708 29.2618 33.7891 26.75 34.2174C27.1725 33.3782 27.4156 32.4349 27.4156 31.4336H27.4098ZM26.3102 46.73C31.3569 47.6618 37.8563 48.1711 44.7261 48.1711C51.5959 48.1711 57.8464 47.6792 62.8468 46.7821L49.6512 62.2059V66.2455H39.8009V62.1943L26.3102 46.7242V46.73ZM20.1175 73.37C20.9394 71.8884 22.5194 70.8813 24.3308 70.8813H65.4512C67.2627 70.8813 68.8427 71.8884 69.6645 73.37H20.1233H20.1175Z" fill="url(#paint0_linear_89_1795)"/>
<path d="M60.3118 26.5142C65.2833 26.5142 69.323 22.4687 69.323 17.5031C69.323 13.365 63.8538 5.60391 62.1754 3.32363L60.3118 0.788696L58.4482 3.32363C56.7699 5.60391 51.3007 13.365 51.3007 17.5031C51.3007 22.4745 55.3461 26.5142 60.3118 26.5142V26.5142ZM60.3118 8.74075C62.6558 12.2827 64.693 16.062 64.693 17.4973C64.693 19.9164 62.7252 21.8784 60.3118 21.8784C57.8984 21.8784 55.9307 19.9107 55.9307 17.4973C55.9307 16.062 57.9737 12.2827 60.3118 8.74075Z" fill="url(#paint1_linear_89_1795)"/>
<defs>
<linearGradient id="paint0_linear_89_1795" x1="71.5102" y1="41.7385" x2="-0.184754" y2="41.5541" gradientUnits="userSpaceOnUse">
<stop stop-color="#0087FF"/>
<stop offset="1" stop-color="#00C3FF"/>
</linearGradient>
<linearGradient id="paint1_linear_89_1795" x1="68.5038" y1="14.3907" x2="51.1296" y2="14.3583" gradientUnits="userSpaceOnUse">
<stop stop-color="#0087FF"/>
<stop offset="1" stop-color="#00C3FF"/>
</linearGradient>
</defs>
</svg>
