<svg width="85" height="78" viewBox="0 0 85 78" fill="none" xmlns="http://www.w3.org/2000/svg">
<path d="M65.1544 65.5568H53.9902V63.2302L70.9014 43.4601C72.354 42.5514 73.0833 41.4807 73.1817 40.2017C73.1817 40.1786 73.1817 40.1496 73.1817 40.1265C73.1817 40.057 73.1932 39.9934 73.1932 39.9181C73.1932 39.8718 73.1874 39.8255 73.1874 39.7792C73.1874 39.7561 73.1874 39.7329 73.1874 39.7098C72.9502 35.8379 66.1035 33.4535 52.8096 32.6201C47.8323 20.5878 37.7852 14.3026 34.1101 12.329V11.8255C34.1101 9.52206 32.235 7.6527 29.9373 7.6527H27.1188V4.53901C27.1188 2.23558 25.2436 0.366211 22.946 0.366211H0.22998V36.9954H17.0832C16.1457 37.8578 15.6769 38.8301 15.6769 39.9239C15.6769 41.0177 16.0994 41.909 16.9791 42.7193L34.8856 63.2476V65.5626H24.0398C18.8368 65.5626 14.6062 69.7933 14.6062 74.9963V77.3113H74.5996V74.9963C74.5996 69.7933 70.3689 65.5626 65.1659 65.5626L65.1544 65.5568ZM67.7472 39.9181C65.8778 40.7515 61.6819 41.7759 55.3735 42.3662C55.1535 40.6184 54.8236 38.9632 54.4069 37.3774C61.6645 37.9735 65.9067 39.0905 67.7414 39.9181H67.7472ZM50.7434 42.6961C48.7873 42.7945 46.6922 42.8466 44.4408 42.8466C42.7914 42.8466 41.2288 42.8177 39.7356 42.7656C40.4243 39.8082 40.6384 37.0186 40.3606 34.4373C39.6661 27.8801 36.0605 24.3323 34.1159 22.8623V17.7172C39.2726 21.0277 48.903 28.9566 50.7434 42.6903V42.6961ZM35.8348 37.1922C35.7885 38.8532 35.5165 40.6242 35.0245 42.4936C27.686 41.9206 22.9113 40.7573 20.984 39.8487C22.6624 39.0037 27.003 37.7015 35.8348 37.1864V37.1922ZM29.4859 12.2827V25.0673H27.1188V12.2827H29.4859V12.2827ZM4.86 4.99044H22.4946V30.7391C22.4946 31.6304 21.7711 32.3538 20.8798 32.3538H4.86V4.99044V4.99044ZM27.1246 30.7391V29.6916H34.0928C34.5673 30.496 34.9956 31.451 35.3139 32.5795C31.9282 32.7763 28.9766 33.0946 26.4648 33.5229C26.8873 32.6837 27.1304 31.7404 27.1304 30.7391H27.1246ZM26.025 46.0355C31.0717 46.9673 37.571 47.4766 44.4408 47.4766C51.3106 47.4766 57.5611 46.9847 62.5616 46.0876L49.366 61.5113V65.551H39.5157V61.4998L26.025 46.0297V46.0355ZM19.8323 72.6755C20.6541 71.1939 22.2341 70.1868 24.0456 70.1868H65.1659C66.9774 70.1868 68.5574 71.1939 69.3792 72.6755H19.8381H19.8323Z" fill="url(#paint0_linear_89_1798)"/>
<path d="M55.3735 18.157C57.2593 18.157 58.7881 16.6282 58.7881 14.7424C58.7881 12.8565 57.2593 11.3278 55.3735 11.3278C53.4876 11.3278 51.9589 12.8565 51.9589 14.7424C51.9589 16.6282 53.4876 18.157 55.3735 18.157Z" fill="url(#paint1_linear_89_1798)"/>
<path d="M64.7318 11.3278C62.845 11.3278 61.3171 12.8557 61.3171 14.7424C61.3171 16.6291 62.845 18.157 64.7318 18.157C66.6185 18.157 68.1464 16.6291 68.1464 14.7424C68.1464 12.8557 66.6185 11.3278 64.7318 11.3278Z" fill="url(#paint2_linear_89_1798)"/>
<path d="M74.3044 11.3278C72.4177 11.3278 70.8898 12.8557 70.8898 14.7424C70.8898 16.6291 72.4177 18.157 74.3044 18.157C76.1911 18.157 77.719 16.6291 77.719 14.7424C77.719 12.8557 76.1911 11.3278 74.3044 11.3278Z" fill="url(#paint3_linear_89_1798)"/>
<path d="M75.2072 5.25665H54.4647C49.2328 5.25665 44.979 9.51048 44.979 14.7424C44.979 19.9743 49.2328 24.2281 54.4647 24.2281H75.2072C80.4391 24.2281 84.693 19.9743 84.693 14.7424C84.693 9.51048 80.4391 5.25665 75.2072 5.25665V5.25665ZM75.2072 19.5981H54.4647C51.7851 19.5981 49.609 17.422 49.609 14.7424C49.609 12.0628 51.7851 9.88667 54.4647 9.88667H75.2072C77.8868 9.88667 80.0629 12.0628 80.0629 14.7424C80.0629 17.422 77.8868 19.5981 75.2072 19.5981V19.5981Z" fill="url(#paint4_linear_89_1798)"/>
<defs>
<linearGradient id="paint0_linear_89_1798" x1="71.2192" y1="41.0498" x2="-0.475769" y2="40.8654" gradientUnits="userSpaceOnUse">
<stop stop-color="#0087FF"/>
<stop offset="1" stop-color="#00C3FF"/>
</linearGradient>
<linearGradient id="paint1_linear_89_1798" x1="58.4777" y1="14.9386" x2="51.8941" y2="14.9211" gradientUnits="userSpaceOnUse">
<stop stop-color="#0087FF"/>
<stop offset="1" stop-color="#00C3FF"/>
</linearGradient>
<linearGradient id="paint2_linear_89_1798" x1="67.836" y1="14.9386" x2="61.2523" y2="14.9211" gradientUnits="userSpaceOnUse">
<stop stop-color="#0087FF"/>
<stop offset="1" stop-color="#00C3FF"/>
</linearGradient>
<linearGradient id="paint3_linear_89_1798" x1="77.4086" y1="14.9386" x2="70.825" y2="14.9211" gradientUnits="userSpaceOnUse">
<stop stop-color="#0087FF"/>
<stop offset="1" stop-color="#00C3FF"/>
</linearGradient>
<linearGradient id="paint4_linear_89_1798" x1="82.8878" y1="15.2876" x2="44.6031" y2="15.0743" gradientUnits="userSpaceOnUse">
<stop stop-color="#0087FF"/>
<stop offset="1" stop-color="#00C3FF"/>
</linearGradient>
</defs>
</svg>
