<svg width="77" height="65" viewBox="0 0 77 65" fill="none" xmlns="http://www.w3.org/2000/svg">
<path d="M69.2967 15.8631C68.9611 15.649 68.3071 15.0528 68.064 14.7345C65.0371 4.98257 58.04 0.0342377 48.2822 0.827128L39.5778 1.74156C35.8854 2.03672 28.2748 3.81928 23.1412 8.61713L20.5774 10.828C18.2045 12.8767 15.496 14.4336 12.5385 15.4638L7.36449 17.2637C3.3711 18.6527 0.685669 22.4261 0.685669 26.6568V30.2798C0.685669 35.1529 4.65012 39.1116 9.51743 39.1116H10.102C11.4736 43.1455 15.2876 46.0566 19.7787 46.0566C24.2698 46.0566 28.0838 43.1455 29.4554 39.1116H35.1561C34.3575 41.1835 33.9118 43.4291 33.9118 45.7788C33.9118 56.0169 42.24 64.3451 52.4782 64.3451C62.7163 64.3451 71.0446 56.0169 71.0446 45.7788C71.0446 43.348 70.57 41.0214 69.7134 38.8916C73.5274 38.0293 76.3864 34.6147 76.3864 30.5402V25.3604C76.3864 20.9851 73.4811 17.1016 69.2967 15.8631V15.8631ZM23.5985 14.3352L26.2029 12.0954L26.2781 12.026C28.8304 9.62994 32.2508 8.14255 35.2082 7.29179V13.3629C35.2082 14.0169 34.2359 14.7461 32.9279 14.7461H23.1008C23.2686 14.6072 23.4364 14.4741 23.5985 14.3352V14.3352ZM19.7787 41.4266C17.0817 41.4266 14.8188 39.5051 14.2979 36.9586C14.2979 36.9007 14.3153 36.8486 14.3153 36.7966C14.3153 36.5535 14.269 36.3278 14.1995 36.1078C14.1995 36.0152 14.188 35.9284 14.188 35.8358C14.188 32.7511 16.6997 30.2393 19.7845 30.2393C22.8692 30.2393 25.381 32.7511 25.381 35.8358C25.381 38.9206 22.8692 41.4324 19.7845 41.4324L19.7787 41.4266ZM52.4782 59.7151C44.7923 59.7151 38.5418 53.4646 38.5418 45.7788C38.5418 38.093 44.7923 31.8424 52.4782 31.8424C60.164 31.8424 66.4146 38.093 66.4146 45.7788C66.4146 53.4646 60.164 59.7151 52.4782 59.7151ZM71.7564 30.5402C71.7564 32.7106 69.9912 34.4758 67.8209 34.4758C67.6241 34.4758 67.4389 34.5105 67.2537 34.551C63.8622 30.0946 58.4972 27.2066 52.4782 27.2066C46.4591 27.2066 41.1578 30.0599 37.7605 34.47H29.9011C29.2355 29.4696 24.9527 25.5977 19.7787 25.5977C14.6046 25.5977 10.3219 29.4696 9.65632 34.47H9.51743C7.19663 34.47 5.31568 32.5832 5.31568 30.2682V26.6452C5.31568 24.3881 6.75101 22.3683 8.88661 21.6275L14.0606 19.8276C14.5005 19.6771 14.9345 19.515 15.3628 19.3414C15.4554 19.353 15.5422 19.3703 15.6348 19.3703H32.9279C36.7361 19.3703 39.8382 16.6734 39.8382 13.3571V7.2397C39.8382 6.93875 39.7746 6.64937 39.6704 6.38315C39.7861 6.37157 39.9019 6.36 40.0119 6.34842L48.7163 5.43399C56.2921 4.82052 61.3331 8.46665 63.6944 16.2624C64.1516 17.7614 66.5534 19.897 67.9019 20.2732C70.1706 20.904 71.7622 22.9933 71.7622 25.3604V30.5402H71.7564Z" fill="url(#paint0_linear_89_1812)"/>
<path d="M52.4724 48.0938C53.7514 48.0938 54.7874 47.0578 54.7874 45.7788V37.9482C54.7874 36.6692 53.7514 35.6332 52.4724 35.6332C51.1933 35.6332 50.1573 36.6692 50.1573 37.9482V45.7788C50.1573 47.0578 51.1933 48.0938 52.4724 48.0938Z" fill="url(#paint1_linear_89_1812)"/>
<path d="M52.4724 50.5767C51.1066 50.5767 49.9954 51.6879 49.9954 53.0537C49.9954 54.4196 51.1066 55.5308 52.4724 55.5308C53.8383 55.5308 54.9553 54.4196 54.9553 53.0537C54.9553 51.6879 53.8383 50.5767 52.4724 50.5767Z" fill="url(#paint2_linear_89_1812)"/>
<defs>
<linearGradient id="paint0_linear_89_1812" x1="72.9455" y1="34.3725" x2="-0.0324638" y2="34.1414" gradientUnits="userSpaceOnUse">
<stop stop-color="#0087FF"/>
<stop offset="1" stop-color="#00C3FF"/>
</linearGradient>
<linearGradient id="paint1_linear_89_1812" x1="54.5769" y1="42.2216" x2="50.1134" y2="42.2172" gradientUnits="userSpaceOnUse">
<stop stop-color="#0087FF"/>
<stop offset="1" stop-color="#00C3FF"/>
</linearGradient>
<linearGradient id="paint2_linear_89_1812" x1="54.7298" y1="53.1961" x2="49.9483" y2="53.1833" gradientUnits="userSpaceOnUse">
<stop stop-color="#0087FF"/>
<stop offset="1" stop-color="#00C3FF"/>
</linearGradient>
</defs>
</svg>
