<svg width="77" height="68" viewBox="0 0 77 68" fill="none" xmlns="http://www.w3.org/2000/svg">
<path d="M69.5815 15.8631C69.2459 15.649 68.5919 15.0529 68.3488 14.7345C65.3219 4.98257 58.3248 0.0342376 48.567 0.827128L39.8626 1.74156C36.1702 2.03672 28.5596 3.81928 23.4261 8.61713L20.8622 10.828C18.4893 12.871 15.7807 14.4336 12.8233 15.4638L7.64928 17.2637C3.65589 18.6527 0.970459 22.4261 0.970459 26.6568V30.2798C0.970459 35.1529 4.93492 39.1116 9.80222 39.1116H10.3868C11.7584 43.1455 15.5724 46.0566 20.0635 46.0566C24.5546 46.0566 28.3686 43.1455 29.7402 39.1116H41.6336C41.7146 39.8929 41.8824 40.68 42.1834 41.4787L36.6968 47.4456C31.1061 47.3704 26.5629 51.8904 26.5629 57.4522C26.5629 63.014 31.054 67.4646 36.5753 67.4646C42.0966 67.4646 46.5761 62.9851 46.5877 57.4696L52.7572 50.7387C54.3488 51.0744 55.9635 51.0454 57.8907 50.6692C63.1284 49.6448 67.3996 44.8586 68.3488 39.1058C72.9614 38.9785 76.677 35.1934 76.677 30.5518V25.372C76.677 20.9966 73.7717 17.1132 69.5873 15.8747L69.5815 15.8631ZM23.8833 14.3352L26.4876 12.0954L26.5629 12.026C29.1152 9.62994 32.5356 8.14255 35.493 7.29179V13.3629C35.493 14.0169 34.5207 14.7461 33.2127 14.7461H23.3855C23.5534 14.6072 23.7212 14.4741 23.8833 14.3352V14.3352ZM20.0635 41.4266C17.3665 41.4266 15.1036 39.5051 14.5827 36.9586C14.5827 36.9007 14.6001 36.8486 14.6001 36.7966C14.6001 36.5535 14.5538 36.3278 14.4843 36.1078C14.4843 36.0152 14.4728 35.9284 14.4728 35.8358C14.4728 32.7511 16.9845 30.2393 20.0693 30.2393C23.154 30.2393 25.6658 32.7511 25.6658 35.8358C25.6658 38.9206 23.154 41.4324 20.0693 41.4324L20.0635 41.4266ZM63.8635 37.6936C63.4525 41.8085 60.5009 45.4315 56.9937 46.1145C55.2806 46.4501 54.0941 46.3981 52.7688 45.935L51.3277 45.4315L41.8072 55.8201L41.9172 56.8619C41.9403 57.0702 41.9519 57.2612 41.9519 57.4464C41.9519 60.4154 39.5385 62.8288 36.5695 62.8288C33.6005 62.8288 31.1871 60.4154 31.1871 57.4464C31.1871 54.4774 33.6005 52.064 36.5695 52.064C36.7836 52.064 37.0209 52.0814 37.3161 52.1219L38.5199 52.2897L47.832 42.1616L46.9292 40.6742C46.1073 39.3199 46.0726 38.1914 46.3736 35.6969C46.8655 31.6457 50.1644 28.422 54.2156 28.0227C54.8523 27.959 55.4889 27.9648 56.1082 28.0343L52.7456 31.3968C51.5881 32.5543 51.0152 34.1517 51.1714 35.7837C51.4261 38.3997 53.4227 40.5006 56.0213 40.8941C57.8444 41.1719 59.708 40.5527 61.0044 39.2505L63.8924 36.3625C63.9097 36.7966 63.8982 37.2364 63.8577 37.6763L63.8635 37.6936ZM72.0412 30.5402C72.0412 32.6353 70.3976 34.3426 68.3372 34.4642C68.2214 33.7986 68.0536 33.1388 67.8337 32.4849L67.7411 32.2186L67.5906 31.9813C66.7919 30.737 65.7965 30.3724 65.102 30.2914C63.7766 30.1351 62.8796 30.8701 62.6365 31.1016L57.7403 35.9979C57.474 36.2641 57.092 36.3914 56.7158 36.3336C56.2181 36.2583 55.8362 35.859 55.7899 35.3555C55.7667 35.1066 55.8535 34.8635 56.0271 34.6899L60.9465 29.7705L61.0681 29.6432C61.3806 29.2786 62.3645 27.9764 61.9478 26.3906C61.7973 25.8118 61.3285 24.7585 59.9279 24.255C57.9659 23.5026 55.894 23.2248 53.7758 23.4332C47.8031 24.0119 42.9184 28.613 41.894 34.4815H30.1917C29.5261 29.4811 25.2433 25.6093 20.0693 25.6093C14.8952 25.6093 10.6125 29.4811 9.94691 34.4815H9.80801C7.48722 34.4815 5.60627 32.5948 5.60627 30.2798V26.6568C5.60627 24.3997 7.04156 22.3798 9.17716 21.639L14.3512 19.8391C14.7911 19.6887 15.2251 19.5266 15.6534 19.353C15.746 19.3646 15.8328 19.3819 15.9254 19.3819H33.2185C37.0267 19.3819 40.1288 16.6849 40.1288 13.3687V7.25127C40.1288 6.95032 40.0651 6.66095 39.961 6.39472C40.0767 6.38315 40.1925 6.37157 40.3025 6.36L49.0069 5.44557C56.5827 4.83209 61.6237 8.47823 63.985 16.274C64.4422 17.773 66.844 19.9086 68.1925 20.2848C70.4612 20.9156 72.0528 23.0049 72.0528 25.372V30.5518L72.0412 30.5402Z" fill="url(#paint0_linear_89_1809)"/>
<path d="M36.5464 59.964C37.8505 59.964 38.9077 58.8861 38.9077 57.5564C38.9077 56.2267 37.8505 55.1488 36.5464 55.1488C35.2423 55.1488 34.1851 56.2267 34.1851 57.5564C34.1851 58.8861 35.2423 59.964 36.5464 59.964Z" fill="url(#paint1_linear_89_1809)"/>
<defs>
<linearGradient id="paint0_linear_89_1809" x1="73.2358" y1="36.0219" x2="0.252205" y2="35.8015" gradientUnits="userSpaceOnUse">
<stop stop-color="#0087FF"/>
<stop offset="1" stop-color="#00C3FF"/>
</linearGradient>
<linearGradient id="paint1_linear_89_1809" x1="38.693" y1="57.6948" x2="34.1402" y2="57.6829" gradientUnits="userSpaceOnUse">
<stop stop-color="#0087FF"/>
<stop offset="1" stop-color="#00C3FF"/>
</linearGradient>
</defs>
</svg>
