<svg width="75" height="75" viewBox="0 0 75 75" fill="none" xmlns="http://www.w3.org/2000/svg">
<path d="M19.1972 44.3373C20.0595 46.5771 21.3212 48.6201 22.8954 50.3737C22.9302 50.4605 22.9649 50.5415 23.017 50.6283C23.2369 50.9872 23.5494 51.2534 23.9082 51.4154C26.2638 53.6668 29.1749 55.3394 32.4217 56.1844C32.74 56.3869 33.1104 56.5085 33.5155 56.5085C33.6081 56.5085 33.6949 56.4911 33.7818 56.4795C34.9277 56.6937 36.1083 56.8094 37.3179 56.8094C38.5275 56.8094 39.7082 56.6937 40.8541 56.4795C40.9409 56.4911 41.0277 56.5085 41.1203 56.5085C41.5255 56.5085 41.8959 56.3869 42.2142 56.1844C45.461 55.3394 48.3721 53.6668 50.7276 51.4154C51.0864 51.2534 51.399 50.9872 51.6189 50.6283C51.671 50.5473 51.7057 50.4605 51.7404 50.3737C53.3204 48.6201 54.5821 46.5771 55.4386 44.3373C55.4907 44.2736 55.5486 44.2158 55.5949 44.1463C55.809 43.7991 55.9016 43.4113 55.8901 43.0351C56.4341 41.2526 56.7235 39.3658 56.7235 37.4039C56.7235 35.4419 56.4283 33.5552 55.8901 31.7726C55.9016 31.3906 55.809 31.0086 55.5949 30.6614C55.5486 30.5804 55.4849 30.5167 55.4329 30.4473C54.5705 28.2191 53.3146 26.1876 51.7462 24.4398C51.7115 24.353 51.6768 24.272 51.6247 24.1852C51.4047 23.8263 51.0922 23.5601 50.7334 23.3981C48.3837 21.1467 45.4667 19.4741 42.22 18.6291C41.9016 18.4266 41.5312 18.305 41.1261 18.305C41.0335 18.305 40.9467 18.3224 40.8599 18.334C39.714 18.1198 38.5333 18.0041 37.3295 18.0041C36.1257 18.0041 34.9393 18.1198 33.7933 18.334C33.7065 18.3224 33.6197 18.305 33.5271 18.305C33.122 18.305 32.7516 18.4266 32.4333 18.6291C29.1865 19.4741 26.2696 21.1467 23.9198 23.3981C23.561 23.5601 23.2485 23.8263 23.0285 24.1852C22.9765 24.2662 22.9417 24.353 22.907 24.434C21.3328 26.1819 20.0769 28.2133 19.2146 30.4415C19.1567 30.5109 19.0988 30.5804 19.0525 30.6556C18.8384 31.0029 18.7458 31.3906 18.7574 31.7668C18.2133 33.5494 17.924 35.4419 17.924 37.3981C17.924 39.3542 18.2191 41.2468 18.7574 43.0293C18.7458 43.4055 18.8384 43.7933 19.0525 44.1405C19.0988 44.21 19.1567 44.2679 19.2088 44.3315L19.1972 44.3373ZM25.2509 27.9297L30.425 31.1012C30.9632 31.4311 31.5709 31.5932 32.1786 31.5932C32.2538 31.5932 32.3291 31.5816 32.4043 31.5816C31.2989 32.5713 30.4944 33.885 30.1472 35.3724C29.8925 35.0368 29.5742 34.7416 29.2038 34.5159L23.3932 30.9508C23.8967 29.8685 24.5217 28.8557 25.2509 27.9297V27.9297ZM28.2605 25.0186C29.2559 24.2893 30.3382 23.6816 31.4899 23.2013V26.9979L28.2605 25.0186ZM43.1402 23.2013C44.2919 23.6759 45.3742 24.2893 46.3696 25.0186L43.1402 26.9979V23.2013ZM43.7189 31.3964L49.3791 27.9239C50.1083 28.8499 50.7334 29.8627 51.2369 30.945L44.9401 34.8053C44.7549 34.9152 44.5928 35.0541 44.4366 35.193C44.0951 33.8908 43.418 32.7275 42.4862 31.8131C42.9145 31.761 43.3369 31.6221 43.7131 31.3906L43.7189 31.3964ZM52.6664 37.3981C52.6664 38.2315 52.597 39.0533 52.4697 39.852L48.4647 37.3981L52.4697 34.9442C52.597 35.7428 52.6664 36.5647 52.6664 37.3981ZM49.3791 46.8722L43.7189 43.3997C43.0939 43.0177 42.3646 42.8846 41.6586 42.9946C42.8624 42.1149 43.7884 40.8764 44.2803 39.4411C44.4713 39.6494 44.6912 39.8346 44.9401 39.9851L51.2427 43.8454C50.7392 44.9276 50.1141 45.9404 49.3849 46.8664L49.3791 46.8722ZM46.3696 49.7834C45.3742 50.5126 44.2919 51.1203 43.1402 51.6006V47.804L46.3696 49.7834ZM40.6342 37.0566C40.6342 38.8855 39.1468 40.3728 37.3179 40.3728C35.4891 40.3728 34.0017 38.8855 34.0017 37.0566C34.0017 35.2277 35.4891 33.7404 37.3179 33.7404C39.1468 33.7404 40.6342 35.2277 40.6342 37.0566ZM31.4899 51.5948C30.3382 51.1203 29.2559 50.5068 28.2605 49.7776L31.4899 47.7982V51.5948ZM30.9111 43.3997L25.2509 46.8722C24.5217 45.9462 23.8967 44.9334 23.3932 43.8512L29.2038 40.286C29.6437 40.014 30.0025 39.6552 30.2745 39.2385C30.7491 40.7664 31.7098 42.0744 32.9715 43.0004C32.2712 42.8904 31.5362 43.0235 30.9111 43.4055V43.3997ZM26.1654 37.3923L22.1604 39.8462C22.0331 39.0475 21.9636 38.2257 21.9636 37.3923C21.9636 36.5589 22.0331 35.737 22.1604 34.9384L26.1654 37.3923ZM35.5354 52.6366V45.9867C35.5354 45.2228 35.2402 44.4994 34.7425 43.9495C35.5412 44.2505 36.4093 44.4183 37.3121 44.4183C38.215 44.4183 39.0773 44.2447 39.8818 43.9495C39.3841 44.4994 39.0889 45.2228 39.0889 45.9867V52.6366C38.5044 52.7061 37.914 52.7408 37.3179 52.7408C36.7218 52.7408 36.1257 52.7003 35.5469 52.6366H35.5354ZM39.0831 22.148V28.7978C39.0831 29.2087 39.1641 29.6023 39.3204 29.9669C38.678 29.7875 38.0066 29.6833 37.3121 29.6833C36.4961 29.6833 35.7148 29.8222 34.9798 30.0711C35.3328 29.5328 35.5412 28.8962 35.5412 28.2248V22.148C36.1257 22.0785 36.716 22.0438 37.3121 22.0438C37.9083 22.0438 38.5044 22.0843 39.0831 22.148V22.148Z" fill="url(#paint0_linear_89_1790)"/>
<path d="M37.3122 0.560536C19.8628 0.560536 4.56065 12.9343 0.93766 29.9843C0.671434 31.2344 1.47011 32.4671 2.72022 32.7276C3.97032 32.9996 5.19727 32.1951 5.4635 30.945C8.63506 16.019 22.0274 5.18476 37.3122 5.18476C51.0981 5.18476 63.3503 14.0049 67.9455 26.6912L67.361 26.4713C66.163 26.0256 64.8319 26.6333 64.3804 27.8313C63.929 29.0293 64.5425 30.3605 65.7405 30.8119L74.5607 34.105L73.681 29.9785C70.058 12.9285 54.7558 0.554749 37.3064 0.554749L37.3122 0.560536Z" fill="url(#paint1_linear_89_1790)"/>
<path d="M71.9041 42.7747C70.654 42.5027 69.4271 43.3072 69.1609 44.5573C65.9893 59.4833 52.597 70.3175 37.3121 70.3175C23.6478 70.3175 11.494 61.6536 6.80612 49.1468L7.54693 49.4709C8.716 49.986 10.0819 49.4535 10.5969 48.2786C11.112 47.1096 10.5796 45.7437 9.40472 45.2286L0 41.1079L0.937578 45.5238C4.56057 62.5738 19.8628 74.9533 37.3121 74.9533C54.7615 74.9533 70.0637 62.5796 73.6867 45.5238C73.9529 44.2737 73.1542 43.0409 71.9041 42.7805V42.7747Z" fill="url(#paint2_linear_89_1790)"/>
<path d="M37.3121 64.1654C52.0703 64.1654 64.0736 52.1621 64.0736 37.4039C64.0736 22.6457 52.0703 10.6424 37.3121 10.6424C22.554 10.6424 10.5507 22.6457 10.5507 37.4039C10.5507 52.1621 22.554 64.1654 37.3121 64.1654V64.1654ZM37.3121 14.6937C49.8363 14.6937 60.0224 24.8797 60.0224 37.4039C60.0224 49.9281 49.8363 60.1141 37.3121 60.1141C24.788 60.1141 14.6019 49.9281 14.6019 37.4039C14.6019 24.8797 24.788 14.6937 37.3121 14.6937V14.6937Z" fill="url(#paint3_linear_89_1790)"/>
<defs>
<linearGradient id="paint0_linear_89_1790" x1="54.9599" y1="38.5218" x2="17.5558" y2="38.4223" gradientUnits="userSpaceOnUse">
<stop stop-color="#0087FF"/>
<stop offset="1" stop-color="#00C3FF"/>
</linearGradient>
<linearGradient id="paint1_linear_89_1790" x1="71.2119" y1="18.294" x2="0.189279" y2="17.879" gradientUnits="userSpaceOnUse">
<stop stop-color="#0087FF"/>
<stop offset="1" stop-color="#00C3FF"/>
</linearGradient>
<linearGradient id="paint2_linear_89_1790" x1="70.3862" y1="59.0032" x2="-0.697836" y2="58.5911" gradientUnits="userSpaceOnUse">
<stop stop-color="#0087FF"/>
<stop offset="1" stop-color="#00C3FF"/>
</linearGradient>
<linearGradient id="paint3_linear_89_1790" x1="61.6408" y1="38.9419" x2="10.0428" y2="38.8046" gradientUnits="userSpaceOnUse">
<stop stop-color="#0087FF"/>
<stop offset="1" stop-color="#00C3FF"/>
</linearGradient>
</defs>
</svg>
