<svg width="241" height="241" viewBox="0 0 241 241" fill="none" xmlns="http://www.w3.org/2000/svg">
<g filter="url(#filter0_d_105_2079)">
<circle cx="120.5" cy="115.5" r="95" stroke="url(#paint0_linear_105_2079)" stroke-width="11" shape-rendering="crispEdges"/>
</g>
<path d="M156.167 157.625V148.708C156.167 143.979 154.288 139.443 150.943 136.098C147.599 132.754 143.063 130.875 138.333 130.875H102.667C97.9369 130.875 93.4009 132.754 90.0565 136.098C86.7121 139.443 84.8333 143.979 84.8333 148.708V157.625" stroke="url(#paint1_linear_105_2079)" stroke-width="11" stroke-linecap="round" stroke-linejoin="round"/>
<path d="M120.5 113.042C130.349 113.042 138.333 105.057 138.333 95.2083C138.333 85.3593 130.349 77.375 120.5 77.375C110.651 77.375 102.667 85.3593 102.667 95.2083C102.667 105.057 110.651 113.042 120.5 113.042Z" stroke="url(#paint2_linear_105_2079)" stroke-width="11" stroke-linecap="round" stroke-linejoin="round"/>
<defs>
<filter id="filter0_d_105_2079" x="0" y="0" width="241" height="241" filterUnits="userSpaceOnUse" color-interpolation-filters="sRGB">
<feFlood flood-opacity="0" result="BackgroundImageFix"/>
<feColorMatrix in="SourceAlpha" type="matrix" values="0 0 0 0 0 0 0 0 0 0 0 0 0 0 0 0 0 0 127 0" result="hardAlpha"/>
<feOffset dy="5"/>
<feGaussianBlur stdDeviation="10"/>
<feComposite in2="hardAlpha" operator="out"/>
<feColorMatrix type="matrix" values="0 0 0 0 0.682353 0 0 0 0 0.682353 0 0 0 0 0.752941 0 0 0 0.6 0"/>
<feBlend mode="normal" in2="BackgroundImageFix" result="effect1_dropShadow_105_2079"/>
<feBlend mode="normal" in="SourceGraphic" in2="effect1_dropShadow_105_2079" result="shape"/>
</filter>
<linearGradient id="paint0_linear_105_2079" x1="211.864" y1="121.276" x2="18.0926" y2="120.76" gradientUnits="userSpaceOnUse">
<stop stop-color="#0087FF"/>
<stop offset="1" stop-color="#00C3FF"/>
</linearGradient>
<linearGradient id="paint1_linear_105_2079" x1="152.924" y1="145.019" x2="84.1593" y2="144.531" gradientUnits="userSpaceOnUse">
<stop stop-color="#0087FF"/>
<stop offset="1" stop-color="#00C3FF"/>
</linearGradient>
<linearGradient id="paint2_linear_105_2079" x1="136.712" y1="96.2332" x2="102.328" y2="96.1417" gradientUnits="userSpaceOnUse">
<stop stop-color="#0087FF"/>
<stop offset="1" stop-color="#00C3FF"/>
</linearGradient>
</defs>
</svg>
